Coordinates
version=1
nRows=13
nColumns=22
inDegrees=yes

Units are S.I. units (second, meters, Newtons, ...)
If the header above contains a line with 'inDegrees', this indicates whether rotational values are in degrees (yes) or radians (no).

endheader
time	pelvis_tilt	pelvis_list	pelvis_rotation	pelvis_tx	pelvis_ty	pelvis_tz	hip_flexion_r	hip_adduction_r	hip_rotation_r	knee_angle_r	ankle_angle_r	subtalar_angle_r	hip_flexion_l	hip_adduction_l	hip_rotation_l	knee_angle_l	ankle_angle_l	subtalar_angle_l	lumbar_extension	lumbar_bending	lumbar_rotation
      4.05000000	      0.40885045	      3.44592415	     84.11341570	      0.75107325	      1.06225469	      0.18246007	     15.64947196	     -0.72960367	      3.61253986	    -12.88312864	      1.07990333	      3.90495030	    -13.09528247	      5.08045553	     17.96477737	    -17.30111611	     16.00397580	     -2.87590073	     -3.15700721	     -2.05808813	     -9.68095115
      4.06000000	      0.58025069	      3.47899557	     84.69840437	      0.75335416	      1.06290658	      0.17452991	     15.41885338	     -0.53794192	      3.28358677	    -13.43089675	      0.68679726	      3.10040895	    -13.21982249	      4.71549790	     18.17146071	    -17.96808232	     15.67187131	     -2.20363269	     -3.08365200	     -1.86531580	     -9.81139453
      4.07000000	      0.75253394	      3.53816998	     85.30290078	      0.75556228	      1.06372270	      0.16653991	     15.16217070	     -0.36497983	      2.91609225	    -13.98858424	      0.46723988	      2.41194246	    -13.31789249	      4.35122396	     18.36486792	    -18.71100263	     15.25619478	     -1.43666838	     -3.03105441	     -1.67037169	     -9.94462760
      4.08000000	      0.91694694	      3.61999562	     85.93146287	      0.75770078	      1.06467321	      0.15850642	     14.87347755	     -0.21043571	      2.52379538	    -14.54382211	      0.39258327	      1.82050536	    -13.38294538	      3.99305015	     18.55590054	    -19.52953288	     14.76004914	     -0.57682357	     -2.99594852	     -1.48670670	    -10.07908704
      4.09000000	      1.06246594	      3.72069792	     86.59126444	      0.75977941	      1.06572445	      0.15046358	     14.54168394	     -0.07571240	      2.12784802	    -15.06884605	      0.44225261	      1.28156573	    -13.40436622	      3.64795663	     18.75635123	    -20.42940595	     14.18792322	      0.37506784	     -2.97744619	     -1.33001160	    -10.22867586
      4.10000000	      1.18645136	      3.83170867	     87.28190805	      0.76180931	      1.06684444	      0.14243494	     14.16616966	      0.04502345	      1.72842944	    -15.54281960	      0.58430492	      0.76369740	    -13.37569035	      3.31637987	     18.98091968	    -21.40142428	     13.54133258	      1.41750831	     -2.96936820	     -1.20493000	    -10.39520245
      4.11000000	      1.28947265	      3.94143538	     88.00467136	      0.76378355	      1.06799916	      0.13444549	     13.74545160	      0.15400229	      1.30223328	    -15.93351719	      0.78340542	      0.26257983	    -13.28272225	      2.99711033	     19.23709976	    -22.44494811	     12.81967736	      2.55377261	     -2.96088783	     -1.11082489	    -10.56795292
      4.12000000	      1.37202607	      4.05389272	     88.74581068	      0.76573955	      1.06916421	      0.12652836	     13.28101246	      0.25510635	      0.83805153	    -16.24500191	      1.04126423	     -0.22283064	    -13.13503850	      2.69170918	     19.52942491	    -23.54913751	     12.03447993	      3.79283805	     -2.96140769	     -1.05173399	    -10.74679593
      4.13000000	      1.43753878	      4.16980909	     89.49582693	      0.76767305	      1.07031404	      0.11870789	     12.77521236	      0.34957828	      0.31767894	    -16.47846736	      1.35273342	     -0.67396540	    -12.93740043	      2.40067607	     19.85768304	    -24.70530570	     11.19115605	      5.13910128	     -2.97402362	     -1.02006067	    -10.91841755
      4.14000000	      1.48906010	      4.29260667	     90.23589648	      0.76960918	      1.07143250	      0.11100026	     12.23003580	      0.44078108	     -0.25517035	    -16.63898103	      1.71025580	     -1.07350709	    -12.69772059	      2.12607982	     20.21036854	    -25.90681284	     10.29816650	      6.60586010	     -3.00370790	     -1.01316138	    -11.06260528
      4.15000000	      1.52970413	      4.42728647	     90.94519385	      0.77157030	      1.07250701	      0.10342264	     11.65064558	      0.53281401	     -0.86166905	    -16.74169764	      2.11411144	     -1.41050524	    -12.42567412	      1.87038265	     20.57008922	    -27.14769058	      9.37155510	      8.20062938	     -3.05670693	     -1.02745235	    -11.15745032
      4.16000000	      1.56193373	      4.57398246	     91.60671577	      0.77356217	      1.07352565	      0.09598980	     11.05025384	      0.62830509	     -1.47811131	    -16.80680141	      2.54484083	     -1.67701713	    -12.12483392	      1.63793045	     20.92284029	    -28.42397099	      8.41625900	      9.92575751	     -3.13326143	     -1.05572081	    -11.18878573
      4.17000000	      1.58617718	      4.73086859	     92.20328757	      0.77558877	      1.07448146	      0.08870544	     10.43973815	      0.72941306	     -2.06566414	    -16.84751097	      2.98828185	     -1.87400100	    -11.79449138	      1.43439480	     21.24148169	    -29.73700281	      7.44860960	     11.77003821	     -3.22930844	     -1.09556218	    -11.14196416
